# xmcd
#
# Track frame offsets:
#	150
#	7850
#	28792
#	50182
#	76365
#	97782
#	128305
#	165952
#	179972
#	221862
#	269167
#
# Disc length: 3798 seconds
#
# Revision: 1
# Processed by: cddbd v1.5.1PL0 Copyright (c) Steve Scherf et al.
# Submitted via: CDex 1.50Beta5
#
DISCID=920ed40b
DTITLE=仲井戸麗市 - TIME
DYEAR=1900
DGENRE=Rock
TTITLE0=青空ラグ(instrument)
TTITLE1=I Feel Beat
TTITLE2=たそがれ Song
TTITLE3=夏に続く午後
TTITLE4=悲しみをぶっとばせ!
TTITLE5=Song For Bobby
TTITLE6=Feel Like Going Home
TTITLE7=Time -時の昼寝- (instrumental)
TTITLE8=時代は変わる
TTITLE9=大切な手紙
TTITLE10=ハレルヨ
EXTD=
EXTT0=
EXTT1=
EXTT2=
EXTT3=
EXTT4=
EXTT5=
EXTT6=
EXTT7=
EXTT8=
EXTT9=
EXTT10=
PLAYORDER=
